<?xml version="1.0" encoding="UTF-8" standalone="no"?>
<svg width="200" height="200" viewBox="0 0 200 200" fill="none" xmlns="http://www.w3.org/2000/svg">
  <!-- Background Circle -->
  <circle cx="100" cy="100" r="90" fill="#8B5CF6" />
  
  <!-- Inner Circle -->
  <circle cx="100" cy="100" r="70" fill="#F3F4F6" />
  
  <!-- Clothes Hanger -->
  <path d="M100 40 L100 60 M70 75 L130 75 M70 75 C60 85, 60 120, 70 130 M130 75 C140 85, 140 120, 130 130 M70 130 L130 130" 
        stroke="#8B5CF6" stroke-width="8" stroke-linecap="round" stroke-linejoin="round" />
  
  <!-- Shirt -->
  <path d="M85 90 L85 125 L115 125 L115 90 M85 90 C85 80, 100 75, 100 90 M115 90 C115 80, 100 75, 100 90" 
        stroke="#8B5CF6" stroke-width="6" stroke-linecap="round" stroke-linejoin="round" fill="#EDE9FE" />
  
  <!-- Text -->
  <text x="100" y="160" font-family="Arial, sans-serif" font-size="24" font-weight="bold" text-anchor="middle" fill="#8B5CF6">ستايلر</text>
  <text x="100" y="180" font-family="Arial, sans-serif" font-size="16" text-anchor="middle" fill="#8B5CF6">Styler</text>
</svg>